<svg xmlns="http://www.w3.org/2000/svg" xmlns:xlink="http://www.w3.org/1999/xlink" width="250" zoomAndPan="magnify" viewBox="0 0 187.5 33.749998" height="45" preserveAspectRatio="xMidYMid meet" version="1.0"><defs><g/></defs><g fill="#ffffff" fill-opacity="1"><g transform="translate(7.269507, 24.273471)"><g><path d="M 12.265625 -15.25 C 12.203125 -14.601562 12.160156 -13.976562 12.140625 -13.375 C 12.117188 -12.769531 12.109375 -12.304688 12.109375 -11.984375 C 12.109375 -11.660156 12.113281 -11.351562 12.125 -11.0625 C 12.144531 -10.78125 12.160156 -10.539062 12.171875 -10.34375 L 11.671875 -10.34375 C 11.484375 -11.457031 11.222656 -12.332031 10.890625 -12.96875 C 10.566406 -13.613281 10.164062 -14.070312 9.6875 -14.34375 C 9.207031 -14.625 8.632812 -14.765625 7.96875 -14.765625 L 7.265625 -14.765625 C 6.847656 -14.765625 6.53125 -14.726562 6.3125 -14.65625 C 6.09375 -14.582031 5.945312 -14.4375 5.875 -14.21875 C 5.8125 -14 5.78125 -13.671875 5.78125 -13.234375 L 5.78125 -2.40625 C 5.78125 -1.851562 5.835938 -1.4375 5.953125 -1.15625 C 6.066406 -0.882812 6.285156 -0.707031 6.609375 -0.625 C 6.941406 -0.539062 7.429688 -0.488281 8.078125 -0.46875 L 8.078125 0 C 7.628906 -0.0078125 7.050781 -0.0195312 6.34375 -0.03125 C 5.644531 -0.0507812 4.910156 -0.0625 4.140625 -0.0625 C 3.515625 -0.0625 2.90625 -0.0507812 2.3125 -0.03125 C 1.726562 -0.0195312 1.203125 -0.0078125 0.734375 0 L 0.734375 -0.4375 C 1.191406 -0.457031 1.535156 -0.507812 1.765625 -0.59375 C 1.992188 -0.6875 2.144531 -0.863281 2.21875 -1.125 C 2.300781 -1.382812 2.34375 -1.769531 2.34375 -2.28125 L 2.34375 -12.96875 C 2.34375 -13.5 2.300781 -13.890625 2.21875 -14.140625 C 2.144531 -14.390625 1.988281 -14.5625 1.75 -14.65625 C 1.519531 -14.75 1.179688 -14.804688 0.734375 -14.828125 L 0.734375 -15.25 C 1.316406 -15.238281 1.9375 -15.226562 2.59375 -15.21875 C 3.257812 -15.21875 3.914062 -15.210938 4.5625 -15.203125 C 5.207031 -15.191406 5.8125 -15.1875 6.375 -15.1875 C 6.9375 -15.1875 7.394531 -15.1875 7.75 -15.1875 C 8.414062 -15.1875 9.164062 -15.191406 10 -15.203125 C 10.84375 -15.210938 11.597656 -15.226562 12.265625 -15.25 Z M 9.046875 -7.796875 C 9.046875 -7.796875 9.046875 -7.722656 9.046875 -7.578125 C 9.046875 -7.441406 9.046875 -7.375 9.046875 -7.375 L 5.125 -7.375 C 5.125 -7.375 5.125 -7.441406 5.125 -7.578125 C 5.125 -7.722656 5.125 -7.796875 5.125 -7.796875 Z M 9.59375 -10.640625 C 9.53125 -9.828125 9.503906 -9.203125 9.515625 -8.765625 C 9.523438 -8.335938 9.53125 -7.941406 9.53125 -7.578125 C 9.53125 -7.222656 9.535156 -6.828125 9.546875 -6.390625 C 9.554688 -5.960938 9.59375 -5.34375 9.65625 -4.53125 L 9.15625 -4.53125 C 9.070312 -5.03125 8.9375 -5.492188 8.75 -5.921875 C 8.5625 -6.359375 8.285156 -6.707031 7.921875 -6.96875 C 7.566406 -7.238281 7.101562 -7.375 6.53125 -7.375 L 6.53125 -7.796875 C 6.957031 -7.796875 7.316406 -7.882812 7.609375 -8.0625 C 7.910156 -8.25 8.160156 -8.488281 8.359375 -8.78125 C 8.554688 -9.070312 8.710938 -9.382812 8.828125 -9.71875 C 8.941406 -10.050781 9.03125 -10.359375 9.09375 -10.640625 Z M 9.59375 -10.640625 "/></g></g></g><g fill="#ffffff" fill-opacity="1"><g transform="translate(19.850894, 24.273471)"><g><path d="M 4.90625 -16.875 L 4.90625 -2 C 4.90625 -1.394531 5.007812 -0.984375 5.21875 -0.765625 C 5.425781 -0.554688 5.785156 -0.453125 6.296875 -0.453125 L 6.296875 0 C 6.015625 -0.0078125 5.601562 -0.0234375 5.0625 -0.046875 C 4.519531 -0.078125 3.96875 -0.09375 3.40625 -0.09375 C 2.84375 -0.09375 2.273438 -0.078125 1.703125 -0.046875 C 1.140625 -0.0234375 0.71875 -0.0078125 0.4375 0 L 0.4375 -0.453125 C 0.9375 -0.453125 1.289062 -0.554688 1.5 -0.765625 C 1.707031 -0.984375 1.8125 -1.394531 1.8125 -2 L 1.8125 -14.28125 C 1.8125 -14.925781 1.710938 -15.40625 1.515625 -15.71875 C 1.328125 -16.03125 0.96875 -16.1875 0.4375 -16.1875 L 0.4375 -16.640625 C 0.894531 -16.585938 1.335938 -16.5625 1.765625 -16.5625 C 2.359375 -16.5625 2.921875 -16.585938 3.453125 -16.640625 C 3.984375 -16.691406 4.46875 -16.769531 4.90625 -16.875 Z M 4.90625 -16.875 "/></g></g></g><g fill="#ffffff" fill-opacity="1"><g transform="translate(26.335422, 24.273471)"><g><path d="M 6.078125 -11.4375 C 7.335938 -11.4375 8.328125 -11.0625 9.046875 -10.3125 C 9.765625 -9.570312 10.125 -8.351562 10.125 -6.65625 L 3.03125 -6.65625 L 3 -7.0625 L 7.40625 -7.0625 C 7.425781 -7.769531 7.382812 -8.421875 7.28125 -9.015625 C 7.175781 -9.609375 7.015625 -10.082031 6.796875 -10.4375 C 6.585938 -10.800781 6.304688 -10.984375 5.953125 -10.984375 C 5.441406 -10.984375 5.007812 -10.664062 4.65625 -10.03125 C 4.3125 -9.40625 4.101562 -8.359375 4.03125 -6.890625 L 4.09375 -6.765625 C 4.082031 -6.585938 4.070312 -6.40625 4.0625 -6.21875 C 4.050781 -6.039062 4.046875 -5.847656 4.046875 -5.640625 C 4.046875 -4.648438 4.1875 -3.847656 4.46875 -3.234375 C 4.75 -2.617188 5.101562 -2.171875 5.53125 -1.890625 C 5.96875 -1.609375 6.410156 -1.46875 6.859375 -1.46875 C 7.148438 -1.46875 7.457031 -1.515625 7.78125 -1.609375 C 8.113281 -1.703125 8.441406 -1.875 8.765625 -2.125 C 9.097656 -2.375 9.410156 -2.726562 9.703125 -3.1875 L 10.078125 -3.0625 C 9.910156 -2.507812 9.640625 -1.972656 9.265625 -1.453125 C 8.890625 -0.941406 8.414062 -0.519531 7.84375 -0.1875 C 7.269531 0.132812 6.582031 0.296875 5.78125 0.296875 C 4.800781 0.296875 3.9375 0.0859375 3.1875 -0.328125 C 2.4375 -0.742188 1.847656 -1.375 1.421875 -2.21875 C 1.003906 -3.0625 0.796875 -4.140625 0.796875 -5.453125 C 0.796875 -6.785156 1.019531 -7.894531 1.46875 -8.78125 C 1.925781 -9.675781 2.550781 -10.34375 3.34375 -10.78125 C 4.144531 -11.21875 5.054688 -11.4375 6.078125 -11.4375 Z M 6.078125 -11.4375 "/></g></g></g><g fill="#ffffff" fill-opacity="1"><g transform="translate(37.064071, 24.273471)"><g><path d="M 7.921875 -11.4375 C 8.390625 -11.4375 8.765625 -11.335938 9.046875 -11.140625 C 9.335938 -10.953125 9.550781 -10.707031 9.6875 -10.40625 C 9.820312 -10.101562 9.890625 -9.785156 9.890625 -9.453125 C 9.890625 -8.921875 9.734375 -8.488281 9.421875 -8.15625 C 9.117188 -7.820312 8.710938 -7.65625 8.203125 -7.65625 C 7.703125 -7.65625 7.3125 -7.78125 7.03125 -8.03125 C 6.75 -8.28125 6.609375 -8.613281 6.609375 -9.03125 C 6.609375 -9.425781 6.695312 -9.753906 6.875 -10.015625 C 7.0625 -10.285156 7.289062 -10.515625 7.5625 -10.703125 C 7.363281 -10.765625 7.160156 -10.757812 6.953125 -10.6875 C 6.679688 -10.644531 6.421875 -10.53125 6.171875 -10.34375 C 5.929688 -10.164062 5.722656 -9.941406 5.546875 -9.671875 C 5.378906 -9.410156 5.242188 -9.125 5.140625 -8.8125 C 5.046875 -8.507812 5 -8.210938 5 -7.921875 L 5 -2.21875 C 5 -1.53125 5.164062 -1.0625 5.5 -0.8125 C 5.84375 -0.570312 6.351562 -0.453125 7.03125 -0.453125 L 7.03125 0 C 6.695312 -0.0078125 6.210938 -0.0234375 5.578125 -0.046875 C 4.941406 -0.078125 4.28125 -0.09375 3.59375 -0.09375 C 3.019531 -0.09375 2.4375 -0.078125 1.84375 -0.046875 C 1.257812 -0.0234375 0.816406 -0.0078125 0.515625 0 L 0.515625 -0.453125 C 1.015625 -0.453125 1.367188 -0.554688 1.578125 -0.765625 C 1.785156 -0.984375 1.890625 -1.394531 1.890625 -2 L 1.890625 -8.796875 C 1.890625 -9.441406 1.789062 -9.914062 1.59375 -10.21875 C 1.40625 -10.53125 1.046875 -10.6875 0.515625 -10.6875 L 0.515625 -11.140625 C 0.972656 -11.097656 1.421875 -11.078125 1.859375 -11.078125 C 2.460938 -11.078125 3.023438 -11.097656 3.546875 -11.140625 C 4.066406 -11.191406 4.550781 -11.269531 5 -11.375 L 5 -9.375 C 5.164062 -9.757812 5.394531 -10.109375 5.6875 -10.421875 C 5.976562 -10.742188 6.304688 -10.992188 6.671875 -11.171875 C 7.046875 -11.347656 7.460938 -11.4375 7.921875 -11.4375 Z M 7.921875 -11.4375 "/></g></g></g><g fill="#ffffff" fill-opacity="1"><g transform="translate(46.823193, 24.273471)"><g><path d="M 6.078125 -11.4375 C 7.335938 -11.4375 8.328125 -11.0625 9.046875 -10.3125 C 9.765625 -9.570312 10.125 -8.351562 10.125 -6.65625 L 3.03125 -6.65625 L 3 -7.0625 L 7.40625 -7.0625 C 7.425781 -7.769531 7.382812 -8.421875 7.28125 -9.015625 C 7.175781 -9.609375 7.015625 -10.082031 6.796875 -10.4375 C 6.585938 -10.800781 6.304688 -10.984375 5.953125 -10.984375 C 5.441406 -10.984375 5.007812 -10.664062 4.65625 -10.03125 C 4.3125 -9.40625 4.101562 -8.359375 4.03125 -6.890625 L 4.09375 -6.765625 C 4.082031 -6.585938 4.070312 -6.40625 4.0625 -6.21875 C 4.050781 -6.039062 4.046875 -5.847656 4.046875 -5.640625 C 4.046875 -4.648438 4.1875 -3.847656 4.46875 -3.234375 C 4.75 -2.617188 5.101562 -2.171875 5.53125 -1.890625 C 5.96875 -1.609375 6.410156 -1.46875 6.859375 -1.46875 C 7.148438 -1.46875 7.457031 -1.515625 7.78125 -1.609375 C 8.113281 -1.703125 8.441406 -1.875 8.765625 -2.125 C 9.097656 -2.375 9.410156 -2.726562 9.703125 -3.1875 L 10.078125 -3.0625 C 9.910156 -2.507812 9.640625 -1.972656 9.265625 -1.453125 C 8.890625 -0.941406 8.414062 -0.519531 7.84375 -0.1875 C 7.269531 0.132812 6.582031 0.296875 5.78125 0.296875 C 4.800781 0.296875 3.9375 0.0859375 3.1875 -0.328125 C 2.4375 -0.742188 1.847656 -1.375 1.421875 -2.21875 C 1.003906 -3.0625 0.796875 -4.140625 0.796875 -5.453125 C 0.796875 -6.785156 1.019531 -7.894531 1.46875 -8.78125 C 1.925781 -9.675781 2.550781 -10.34375 3.34375 -10.78125 C 4.144531 -11.21875 5.054688 -11.4375 6.078125 -11.4375 Z M 6.078125 -11.4375 "/></g></g></g><g fill="#d4621a" fill-opacity="1"><g transform="translate(57.685116, 24.273471)"><g><path d="M 4.953125 -6.125 L 5.0625 -6.546875 L 6.03125 -6.546875 C 6.976562 -6.546875 7.78125 -6.722656 8.4375 -7.078125 C 9.09375 -7.429688 9.613281 -7.894531 10 -8.46875 C 10.394531 -9.039062 10.679688 -9.675781 10.859375 -10.375 C 11.035156 -11.070312 11.125 -11.769531 11.125 -12.46875 C 11.125 -13.238281 10.960938 -13.820312 10.640625 -14.21875 C 10.316406 -14.625 9.78125 -14.828125 9.03125 -14.828125 C 8.738281 -14.828125 8.515625 -14.773438 8.359375 -14.671875 C 8.203125 -14.566406 8.078125 -14.378906 7.984375 -14.109375 C 7.890625 -13.847656 7.78125 -13.46875 7.65625 -12.96875 L 4.8125 -2.28125 C 4.707031 -1.863281 4.65625 -1.519531 4.65625 -1.25 C 4.65625 -0.988281 4.757812 -0.789062 4.96875 -0.65625 C 5.1875 -0.53125 5.554688 -0.457031 6.078125 -0.4375 L 5.984375 0 C 5.554688 -0.03125 5.054688 -0.046875 4.484375 -0.046875 C 3.910156 -0.0546875 3.304688 -0.0625 2.671875 -0.0625 C 1.953125 -0.0625 1.269531 -0.0546875 0.625 -0.046875 C -0.0195312 -0.046875 -0.53125 -0.03125 -0.90625 0 L -0.8125 -0.4375 C -0.332031 -0.457031 0.0390625 -0.507812 0.3125 -0.59375 C 0.59375 -0.6875 0.8125 -0.863281 0.96875 -1.125 C 1.125 -1.382812 1.269531 -1.769531 1.40625 -2.28125 L 4.25 -12.96875 C 4.34375 -13.414062 4.390625 -13.769531 4.390625 -14.03125 C 4.390625 -14.289062 4.289062 -14.484375 4.09375 -14.609375 C 3.894531 -14.734375 3.519531 -14.804688 2.96875 -14.828125 L 3.078125 -15.25 C 3.441406 -15.238281 3.945312 -15.222656 4.59375 -15.203125 C 5.238281 -15.191406 5.875 -15.1875 6.5 -15.1875 C 7.019531 -15.1875 7.539062 -15.191406 8.0625 -15.203125 C 8.59375 -15.222656 9.125 -15.234375 9.65625 -15.234375 C 11.375 -15.234375 12.644531 -14.953125 13.46875 -14.390625 C 14.300781 -13.828125 14.71875 -13.023438 14.71875 -11.984375 C 14.71875 -10.859375 14.34375 -9.851562 13.59375 -8.96875 C 12.84375 -8.09375 11.800781 -7.398438 10.46875 -6.890625 C 9.132812 -6.378906 7.582031 -6.125 5.8125 -6.125 Z M 4.953125 -6.125 "/></g></g></g><g fill="#d4621a" fill-opacity="1"><g transform="translate(70.934172, 24.273471)"><g><path d="M 3.765625 -0.859375 C 3.992188 -0.859375 4.242188 -0.976562 4.515625 -1.21875 C 4.796875 -1.46875 5.078125 -1.828125 5.359375 -2.296875 C 5.648438 -2.765625 5.929688 -3.332031 6.203125 -4 C 6.472656 -4.675781 6.722656 -5.460938 6.953125 -6.359375 L 6.484375 -4 C 6.128906 -2.9375 5.734375 -2.085938 5.296875 -1.453125 C 4.867188 -0.828125 4.410156 -0.378906 3.921875 -0.109375 C 3.429688 0.160156 2.921875 0.296875 2.390625 0.296875 C 1.585938 0.296875 0.984375 0.0625 0.578125 -0.40625 C 0.179688 -0.882812 -0.015625 -1.53125 -0.015625 -2.34375 C -0.015625 -3.125 0.113281 -3.9375 0.375 -4.78125 C 0.644531 -5.625 1.003906 -6.441406 1.453125 -7.234375 C 1.910156 -8.023438 2.421875 -8.738281 2.984375 -9.375 C 3.546875 -10.007812 4.144531 -10.507812 4.78125 -10.875 C 5.425781 -11.25 6.054688 -11.4375 6.671875 -11.4375 C 7.148438 -11.4375 7.519531 -11.25 7.78125 -10.875 C 8.039062 -10.507812 8.117188 -9.929688 8.015625 -9.140625 L 7.78125 -9 C 7.851562 -9.519531 7.828125 -9.921875 7.703125 -10.203125 C 7.578125 -10.492188 7.375 -10.640625 7.09375 -10.640625 C 6.800781 -10.640625 6.476562 -10.472656 6.125 -10.140625 C 5.78125 -9.816406 5.429688 -9.363281 5.078125 -8.78125 C 4.734375 -8.207031 4.414062 -7.554688 4.125 -6.828125 C 3.832031 -6.109375 3.597656 -5.347656 3.421875 -4.546875 C 3.253906 -3.753906 3.171875 -2.972656 3.171875 -2.203125 C 3.171875 -1.710938 3.21875 -1.363281 3.3125 -1.15625 C 3.414062 -0.957031 3.566406 -0.859375 3.765625 -0.859375 Z M 8.34375 -11.125 C 8.957031 -11.132812 9.515625 -11.164062 10.015625 -11.21875 C 10.515625 -11.269531 11 -11.34375 11.46875 -11.4375 L 8.640625 -1.828125 C 8.597656 -1.640625 8.566406 -1.460938 8.546875 -1.296875 C 8.523438 -1.140625 8.546875 -1.007812 8.609375 -0.90625 C 8.671875 -0.800781 8.78125 -0.75 8.9375 -0.75 C 9.125 -0.75 9.332031 -0.859375 9.5625 -1.078125 C 9.789062 -1.304688 10.03125 -1.765625 10.28125 -2.453125 L 10.671875 -3.484375 L 11.078125 -3.484375 L 10.53125 -1.921875 C 10.332031 -1.328125 10.070312 -0.875 9.75 -0.5625 C 9.4375 -0.25 9.097656 -0.03125 8.734375 0.09375 C 8.378906 0.226562 8.03125 0.296875 7.6875 0.296875 C 6.945312 0.296875 6.414062 0.078125 6.09375 -0.359375 C 5.882812 -0.679688 5.789062 -1.070312 5.8125 -1.53125 C 5.832031 -2 5.925781 -2.535156 6.09375 -3.140625 Z M 8.34375 -11.125 "/></g></g></g><g fill="#d4621a" fill-opacity="1"><g transform="translate(82.955502, 24.273471)"><g><path d="M 8.65625 -11.140625 L 8.59375 -10.703125 L 1.125 -10.703125 L 1.234375 -11.140625 Z M 3.53125 -1.828125 C 3.4375 -1.453125 3.445312 -1.175781 3.5625 -1 C 3.6875 -0.832031 3.867188 -0.75 4.109375 -0.75 C 4.410156 -0.75 4.710938 -0.898438 5.015625 -1.203125 C 5.316406 -1.503906 5.582031 -1.972656 5.8125 -2.609375 L 6.140625 -3.484375 L 6.546875 -3.484375 L 6.125 -2.234375 C 5.832031 -1.378906 5.410156 -0.742188 4.859375 -0.328125 C 4.304688 0.0859375 3.648438 0.296875 2.890625 0.296875 C 2.222656 0.296875 1.707031 0.144531 1.34375 -0.15625 C 0.988281 -0.457031 0.78125 -0.867188 0.71875 -1.390625 C 0.65625 -1.910156 0.710938 -2.488281 0.890625 -3.125 L 4.109375 -14.34375 C 4.734375 -14.363281 5.296875 -14.394531 5.796875 -14.4375 C 6.296875 -14.476562 6.773438 -14.550781 7.234375 -14.65625 Z M 3.53125 -1.828125 "/></g></g></g><g fill="#d4621a" fill-opacity="1"><g transform="translate(90.560393, 24.273471)"><g><path d="M 3.8125 -14.734375 C 3.84375 -15.359375 4.066406 -15.832031 4.484375 -16.15625 C 4.910156 -16.488281 5.421875 -16.65625 6.015625 -16.65625 C 6.546875 -16.65625 6.953125 -16.53125 7.234375 -16.28125 C 7.515625 -16.03125 7.640625 -15.679688 7.609375 -15.234375 C 7.578125 -14.671875 7.34375 -14.210938 6.90625 -13.859375 C 6.476562 -13.515625 5.960938 -13.34375 5.359375 -13.34375 C 4.859375 -13.34375 4.46875 -13.46875 4.1875 -13.71875 C 3.90625 -13.96875 3.78125 -14.304688 3.8125 -14.734375 Z M 3 -9.3125 C 3.238281 -10.03125 3.160156 -10.390625 2.765625 -10.390625 C 2.503906 -10.390625 2.265625 -10.257812 2.046875 -10 C 1.828125 -9.738281 1.601562 -9.300781 1.375 -8.6875 L 0.953125 -7.578125 L 0.53125 -7.578125 L 1.140625 -9.21875 C 1.335938 -9.789062 1.59375 -10.234375 1.90625 -10.546875 C 2.21875 -10.867188 2.5625 -11.097656 2.9375 -11.234375 C 3.320312 -11.367188 3.722656 -11.4375 4.140625 -11.4375 C 4.640625 -11.4375 5.03125 -11.34375 5.3125 -11.15625 C 5.601562 -10.96875 5.796875 -10.726562 5.890625 -10.4375 C 5.992188 -10.144531 6.03125 -9.820312 6 -9.46875 C 5.976562 -9.113281 5.910156 -8.765625 5.796875 -8.421875 L 3.53125 -1.828125 C 3.40625 -1.441406 3.375 -1.164062 3.4375 -1 C 3.5 -0.832031 3.628906 -0.75 3.828125 -0.75 C 4.015625 -0.75 4.21875 -0.859375 4.4375 -1.078125 C 4.664062 -1.296875 4.914062 -1.753906 5.1875 -2.453125 L 5.578125 -3.484375 L 5.984375 -3.484375 L 5.4375 -1.921875 C 5.226562 -1.328125 4.96875 -0.875 4.65625 -0.5625 C 4.34375 -0.25 4 -0.03125 3.625 0.09375 C 3.257812 0.226562 2.890625 0.296875 2.515625 0.296875 C 1.898438 0.296875 1.429688 0.160156 1.109375 -0.109375 C 0.785156 -0.378906 0.609375 -0.769531 0.578125 -1.28125 C 0.546875 -1.800781 0.648438 -2.414062 0.890625 -3.125 Z M 3 -9.3125 "/></g></g></g><g fill="#d4621a" fill-opacity="1"><g transform="translate(97.497433, 24.273471)"><g><path d="M 2.828125 -4.671875 C 3.410156 -4.898438 3.96875 -5.15625 4.5 -5.4375 C 5.03125 -5.726562 5.484375 -6.050781 5.859375 -6.40625 C 6.421875 -6.90625 6.867188 -7.488281 7.203125 -8.15625 C 7.546875 -8.820312 7.71875 -9.546875 7.71875 -10.328125 C 7.71875 -10.609375 7.6875 -10.796875 7.625 -10.890625 C 7.570312 -10.984375 7.488281 -11.03125 7.375 -11.03125 C 7.050781 -11.03125 6.707031 -10.867188 6.34375 -10.546875 C 5.976562 -10.222656 5.613281 -9.789062 5.25 -9.25 C 4.894531 -8.71875 4.566406 -8.101562 4.265625 -7.40625 C 3.972656 -6.71875 3.738281 -6 3.5625 -5.25 C 3.382812 -4.507812 3.296875 -3.785156 3.296875 -3.078125 C 3.296875 -2.273438 3.445312 -1.722656 3.75 -1.421875 C 4.0625 -1.128906 4.460938 -0.984375 4.953125 -0.984375 C 5.335938 -0.984375 5.816406 -1.113281 6.390625 -1.375 C 6.972656 -1.632812 7.546875 -2.097656 8.109375 -2.765625 L 8.453125 -2.578125 C 8.148438 -2.109375 7.753906 -1.648438 7.265625 -1.203125 C 6.773438 -0.753906 6.207031 -0.390625 5.5625 -0.109375 C 4.914062 0.160156 4.210938 0.296875 3.453125 0.296875 C 2.804688 0.296875 2.226562 0.179688 1.71875 -0.046875 C 1.207031 -0.273438 0.800781 -0.613281 0.5 -1.0625 C 0.207031 -1.519531 0.0625 -2.078125 0.0625 -2.734375 C 0.0625 -3.492188 0.1875 -4.273438 0.4375 -5.078125 C 0.6875 -5.890625 1.039062 -6.671875 1.5 -7.421875 C 1.96875 -8.171875 2.523438 -8.851562 3.171875 -9.46875 C 3.816406 -10.082031 4.53125 -10.5625 5.3125 -10.90625 C 6.101562 -11.257812 6.945312 -11.4375 7.84375 -11.4375 C 8.476562 -11.4375 9.007812 -11.296875 9.4375 -11.015625 C 9.863281 -10.734375 10.078125 -10.304688 10.078125 -9.734375 C 10.078125 -9.179688 9.921875 -8.660156 9.609375 -8.171875 C 9.304688 -7.679688 8.894531 -7.234375 8.375 -6.828125 C 7.863281 -6.429688 7.285156 -6.070312 6.640625 -5.75 C 6.003906 -5.4375 5.351562 -5.164062 4.6875 -4.9375 C 4.019531 -4.707031 3.390625 -4.523438 2.796875 -4.390625 Z M 2.828125 -4.671875 "/></g></g></g><g fill="#d4621a" fill-opacity="1"><g transform="translate(107.601387, 24.273471)"><g><path d="M 3.390625 0 L 0.34375 0 L 2.953125 -9.3125 C 3.023438 -9.507812 3.070312 -9.691406 3.09375 -9.859375 C 3.113281 -10.023438 3.09375 -10.15625 3.03125 -10.25 C 2.976562 -10.34375 2.875 -10.390625 2.71875 -10.390625 C 2.457031 -10.390625 2.222656 -10.269531 2.015625 -10.03125 C 1.804688 -9.789062 1.578125 -9.34375 1.328125 -8.6875 L 0.921875 -7.578125 L 0.515625 -7.578125 L 1.09375 -9.21875 C 1.382812 -10.039062 1.765625 -10.613281 2.234375 -10.9375 C 2.703125 -11.269531 3.25 -11.4375 3.875 -11.4375 C 4.394531 -11.4375 4.789062 -11.347656 5.0625 -11.171875 C 5.332031 -10.992188 5.515625 -10.753906 5.609375 -10.453125 C 5.703125 -10.148438 5.738281 -9.820312 5.71875 -9.46875 C 5.695312 -9.113281 5.644531 -8.765625 5.5625 -8.421875 Z M 4.078125 -3.640625 C 4.628906 -5.203125 5.144531 -6.488281 5.625 -7.5 C 6.113281 -8.519531 6.585938 -9.316406 7.046875 -9.890625 C 7.515625 -10.460938 7.992188 -10.863281 8.484375 -11.09375 C 8.972656 -11.320312 9.5 -11.4375 10.0625 -11.4375 C 10.75 -11.4375 11.242188 -11.285156 11.546875 -10.984375 C 11.847656 -10.679688 12 -10.28125 12 -9.78125 C 12 -9.289062 11.90625 -8.757812 11.71875 -8.1875 L 9.609375 -1.828125 C 9.460938 -1.429688 9.425781 -1.148438 9.5 -0.984375 C 9.570312 -0.828125 9.703125 -0.75 9.890625 -0.75 C 10.078125 -0.75 10.285156 -0.851562 10.515625 -1.0625 C 10.742188 -1.269531 10.988281 -1.734375 11.25 -2.453125 L 11.640625 -3.484375 L 12.046875 -3.484375 L 11.5 -1.921875 C 11.300781 -1.316406 11.039062 -0.851562 10.71875 -0.53125 C 10.394531 -0.21875 10.050781 -0.00390625 9.6875 0.109375 C 9.320312 0.234375 8.96875 0.296875 8.625 0.296875 C 8.207031 0.296875 7.851562 0.234375 7.5625 0.109375 C 7.269531 -0.00390625 7.046875 -0.175781 6.890625 -0.40625 C 6.703125 -0.695312 6.613281 -1.0625 6.625 -1.5 C 6.632812 -1.9375 6.742188 -2.476562 6.953125 -3.125 L 8.90625 -8.9375 C 8.988281 -9.164062 9.039062 -9.390625 9.0625 -9.609375 C 9.09375 -9.828125 9.085938 -10.003906 9.046875 -10.140625 C 9.003906 -10.285156 8.882812 -10.359375 8.6875 -10.359375 C 8.414062 -10.359375 8.101562 -10.179688 7.75 -9.828125 C 7.40625 -9.484375 7.039062 -9 6.65625 -8.375 C 6.28125 -7.75 5.90625 -7.019531 5.53125 -6.1875 C 5.164062 -5.351562 4.804688 -4.460938 4.453125 -3.515625 C 4.109375 -2.578125 3.800781 -1.613281 3.53125 -0.625 Z M 4.078125 -3.640625 "/></g></g></g><g fill="#d4621a" fill-opacity="1"><g transform="translate(120.592174, 24.273471)"><g><path d="M 8.65625 -11.140625 L 8.59375 -10.703125 L 1.125 -10.703125 L 1.234375 -11.140625 Z M 3.53125 -1.828125 C 3.4375 -1.453125 3.445312 -1.175781 3.5625 -1 C 3.6875 -0.832031 3.867188 -0.75 4.109375 -0.75 C 4.410156 -0.75 4.710938 -0.898438 5.015625 -1.203125 C 5.316406 -1.503906 5.582031 -1.972656 5.8125 -2.609375 L 6.140625 -3.484375 L 6.546875 -3.484375 L 6.125 -2.234375 C 5.832031 -1.378906 5.410156 -0.742188 4.859375 -0.328125 C 4.304688 0.0859375 3.648438 0.296875 2.890625 0.296875 C 2.222656 0.296875 1.707031 0.144531 1.34375 -0.15625 C 0.988281 -0.457031 0.78125 -0.867188 0.71875 -1.390625 C 0.65625 -1.910156 0.710938 -2.488281 0.890625 -3.125 L 4.109375 -14.34375 C 4.734375 -14.363281 5.296875 -14.394531 5.796875 -14.4375 C 6.296875 -14.476562 6.773438 -14.550781 7.234375 -14.65625 Z M 3.53125 -1.828125 "/></g></g></g><g fill="#d4621a" fill-opacity="1"><g transform="translate(128.197065, 24.273471)"><g><path d="M 2.828125 -4.671875 C 3.410156 -4.898438 3.96875 -5.15625 4.5 -5.4375 C 5.03125 -5.726562 5.484375 -6.050781 5.859375 -6.40625 C 6.421875 -6.90625 6.867188 -7.488281 7.203125 -8.15625 C 7.546875 -8.820312 7.71875 -9.546875 7.71875 -10.328125 C 7.71875 -10.609375 7.6875 -10.796875 7.625 -10.890625 C 7.570312 -10.984375 7.488281 -11.03125 7.375 -11.03125 C 7.050781 -11.03125 6.707031 -10.867188 6.34375 -10.546875 C 5.976562 -10.222656 5.613281 -9.789062 5.25 -9.25 C 4.894531 -8.71875 4.566406 -8.101562 4.265625 -7.40625 C 3.972656 -6.71875 3.738281 -6 3.5625 -5.25 C 3.382812 -4.507812 3.296875 -3.785156 3.296875 -3.078125 C 3.296875 -2.273438 3.445312 -1.722656 3.75 -1.421875 C 4.0625 -1.128906 4.460938 -0.984375 4.953125 -0.984375 C 5.335938 -0.984375 5.816406 -1.113281 6.390625 -1.375 C 6.972656 -1.632812 7.546875 -2.097656 8.109375 -2.765625 L 8.453125 -2.578125 C 8.148438 -2.109375 7.753906 -1.648438 7.265625 -1.203125 C 6.773438 -0.753906 6.207031 -0.390625 5.5625 -0.109375 C 4.914062 0.160156 4.210938 0.296875 3.453125 0.296875 C 2.804688 0.296875 2.226562 0.179688 1.71875 -0.046875 C 1.207031 -0.273438 0.800781 -0.613281 0.5 -1.0625 C 0.207031 -1.519531 0.0625 -2.078125 0.0625 -2.734375 C 0.0625 -3.492188 0.1875 -4.273438 0.4375 -5.078125 C 0.6875 -5.890625 1.039062 -6.671875 1.5 -7.421875 C 1.96875 -8.171875 2.523438 -8.851562 3.171875 -9.46875 C 3.816406 -10.082031 4.53125 -10.5625 5.3125 -10.90625 C 6.101562 -11.257812 6.945312 -11.4375 7.84375 -11.4375 C 8.476562 -11.4375 9.007812 -11.296875 9.4375 -11.015625 C 9.863281 -10.734375 10.078125 -10.304688 10.078125 -9.734375 C 10.078125 -9.179688 9.921875 -8.660156 9.609375 -8.171875 C 9.304688 -7.679688 8.894531 -7.234375 8.375 -6.828125 C 7.863281 -6.429688 7.285156 -6.070312 6.640625 -5.75 C 6.003906 -5.4375 5.351562 -5.164062 4.6875 -4.9375 C 4.019531 -4.707031 3.390625 -4.523438 2.796875 -4.390625 Z M 2.828125 -4.671875 "/></g></g></g><g fill="#d4621a" fill-opacity="1"><g transform="translate(138.301019, 24.273471)"><g><path d="M 3.359375 0 L 0.328125 0 L 2.953125 -9.3125 C 3.054688 -9.695312 3.085938 -9.972656 3.046875 -10.140625 C 3.015625 -10.304688 2.90625 -10.390625 2.71875 -10.390625 C 2.457031 -10.390625 2.21875 -10.257812 2 -10 C 1.789062 -9.75 1.5625 -9.3125 1.3125 -8.6875 L 0.90625 -7.578125 L 0.5 -7.578125 L 1.078125 -9.21875 C 1.296875 -9.789062 1.554688 -10.234375 1.859375 -10.546875 C 2.160156 -10.867188 2.5 -11.097656 2.875 -11.234375 C 3.257812 -11.367188 3.648438 -11.4375 4.046875 -11.4375 C 4.503906 -11.4375 4.851562 -11.347656 5.09375 -11.171875 C 5.34375 -10.992188 5.507812 -10.753906 5.59375 -10.453125 C 5.6875 -10.148438 5.722656 -9.820312 5.703125 -9.46875 C 5.679688 -9.113281 5.625 -8.765625 5.53125 -8.421875 Z M 8.875 -10.96875 C 8.59375 -10.96875 8.285156 -10.878906 7.953125 -10.703125 C 7.617188 -10.535156 7.28125 -10.226562 6.9375 -9.78125 C 6.59375 -9.332031 6.226562 -8.710938 5.84375 -7.921875 C 5.46875 -7.140625 5.082031 -6.132812 4.6875 -4.90625 C 4.289062 -3.675781 3.882812 -2.191406 3.46875 -0.453125 L 3.9375 -3.359375 C 4.394531 -4.941406 4.8125 -6.25 5.1875 -7.28125 C 5.5625 -8.3125 5.9375 -9.132812 6.3125 -9.75 C 6.695312 -10.363281 7.101562 -10.796875 7.53125 -11.046875 C 7.957031 -11.304688 8.441406 -11.4375 8.984375 -11.4375 C 9.546875 -11.4375 9.976562 -11.269531 10.28125 -10.9375 C 10.582031 -10.613281 10.734375 -10.203125 10.734375 -9.703125 C 10.734375 -9.296875 10.640625 -8.921875 10.453125 -8.578125 C 10.273438 -8.242188 10.03125 -7.972656 9.71875 -7.765625 C 9.414062 -7.554688 9.070312 -7.453125 8.6875 -7.453125 C 8.269531 -7.453125 7.945312 -7.5625 7.71875 -7.78125 C 7.488281 -8.007812 7.375 -8.332031 7.375 -8.75 C 7.375 -9.09375 7.453125 -9.410156 7.609375 -9.703125 C 7.765625 -10.003906 7.976562 -10.257812 8.25 -10.46875 C 8.519531 -10.6875 8.820312 -10.832031 9.15625 -10.90625 C 9.113281 -10.914062 9.070312 -10.925781 9.03125 -10.9375 C 8.988281 -10.957031 8.9375 -10.96875 8.875 -10.96875 Z M 8.875 -10.96875 "/></g></g></g><g fill="#ffffff" fill-opacity="1"><g transform="translate(148.430884, 24.273471)"><g><path d="M 2.90625 -3.015625 C 3.46875 -3.015625 3.910156 -2.867188 4.234375 -2.578125 C 4.566406 -2.285156 4.734375 -1.878906 4.734375 -1.359375 C 4.734375 -0.835938 4.566406 -0.429688 4.234375 -0.140625 C 3.910156 0.148438 3.46875 0.296875 2.90625 0.296875 C 2.34375 0.296875 1.894531 0.148438 1.5625 -0.140625 C 1.238281 -0.429688 1.078125 -0.835938 1.078125 -1.359375 C 1.078125 -1.878906 1.238281 -2.285156 1.5625 -2.578125 C 1.894531 -2.867188 2.34375 -3.015625 2.90625 -3.015625 Z M 2.90625 -3.015625 "/></g></g></g><g fill="#ffffff" fill-opacity="1"><g transform="translate(154.247652, 24.273471)"><g><path d="M 11.125 -16.875 L 11.125 -2.375 C 11.125 -1.726562 11.222656 -1.25 11.421875 -0.9375 C 11.617188 -0.625 11.976562 -0.46875 12.5 -0.46875 L 12.5 -0.015625 C 12.050781 -0.0664062 11.601562 -0.09375 11.15625 -0.09375 C 10.550781 -0.09375 9.988281 -0.0664062 9.46875 -0.015625 C 8.945312 0.0234375 8.460938 0.101562 8.015625 0.21875 L 8.015625 -14.28125 C 8.015625 -14.925781 7.914062 -15.40625 7.71875 -15.71875 C 7.53125 -16.03125 7.171875 -16.1875 6.640625 -16.1875 L 6.640625 -16.640625 C 7.097656 -16.585938 7.539062 -16.5625 7.96875 -16.5625 C 8.5625 -16.5625 9.125 -16.585938 9.65625 -16.640625 C 10.1875 -16.691406 10.675781 -16.769531 11.125 -16.875 Z M 5.625 -11.4375 C 6.257812 -11.4375 6.816406 -11.332031 7.296875 -11.125 C 7.773438 -10.914062 8.148438 -10.566406 8.421875 -10.078125 L 8.171875 -9.84375 C 7.984375 -10.1875 7.734375 -10.429688 7.421875 -10.578125 C 7.109375 -10.734375 6.78125 -10.8125 6.4375 -10.8125 C 5.707031 -10.8125 5.125 -10.382812 4.6875 -9.53125 C 4.257812 -8.675781 4.054688 -7.359375 4.078125 -5.578125 C 4.078125 -4.359375 4.15625 -3.382812 4.3125 -2.65625 C 4.476562 -1.9375 4.71875 -1.414062 5.03125 -1.09375 C 5.34375 -0.78125 5.695312 -0.625 6.09375 -0.625 C 6.582031 -0.625 7.019531 -0.816406 7.40625 -1.203125 C 7.800781 -1.585938 8.007812 -2.113281 8.03125 -2.78125 L 8.140625 -2.03125 C 7.929688 -1.269531 7.582031 -0.691406 7.09375 -0.296875 C 6.613281 0.0976562 5.988281 0.296875 5.21875 0.296875 C 4.363281 0.296875 3.601562 0.0859375 2.9375 -0.328125 C 2.269531 -0.742188 1.75 -1.382812 1.375 -2.25 C 1 -3.125 0.8125 -4.25 0.8125 -5.625 C 0.8125 -6.925781 1.019531 -8.003906 1.4375 -8.859375 C 1.851562 -9.722656 2.425781 -10.367188 3.15625 -10.796875 C 3.882812 -11.222656 4.707031 -11.4375 5.625 -11.4375 Z M 5.625 -11.4375 "/></g></g></g><g fill="#ffffff" fill-opacity="1"><g transform="translate(167.130725, 24.273471)"><g><path d="M 4.890625 -16.875 L 4.890625 -2 C 4.890625 -1.394531 4.984375 -0.984375 5.171875 -0.765625 C 5.367188 -0.554688 5.707031 -0.453125 6.1875 -0.453125 L 6.1875 0 C 5.914062 -0.0078125 5.515625 -0.0234375 4.984375 -0.046875 C 4.460938 -0.078125 3.929688 -0.09375 3.390625 -0.09375 C 2.828125 -0.09375 2.257812 -0.078125 1.6875 -0.046875 C 1.125 -0.0234375 0.695312 -0.0078125 0.40625 0 L 0.40625 -0.453125 C 0.90625 -0.453125 1.257812 -0.554688 1.46875 -0.765625 C 1.675781 -0.984375 1.78125 -1.394531 1.78125 -2 L 1.78125 -14.28125 C 1.78125 -14.925781 1.679688 -15.40625 1.484375 -15.71875 C 1.296875 -16.03125 0.9375 -16.1875 0.40625 -16.1875 L 0.40625 -16.640625 C 0.863281 -16.585938 1.3125 -16.5625 1.75 -16.5625 C 2.332031 -16.5625 2.890625 -16.585938 3.421875 -16.640625 C 3.953125 -16.691406 4.441406 -16.769531 4.890625 -16.875 Z M 11.921875 -11.140625 L 11.921875 -10.703125 C 11.472656 -10.617188 11.023438 -10.429688 10.578125 -10.140625 C 10.128906 -9.859375 9.675781 -9.492188 9.21875 -9.046875 L 7.5625 -7.328125 L 7.78125 -7.734375 L 11.46875 -1.578125 C 11.625 -1.316406 11.785156 -1.082031 11.953125 -0.875 C 12.128906 -0.675781 12.335938 -0.535156 12.578125 -0.453125 L 12.578125 0 C 12.367188 -0.0078125 12.046875 -0.0234375 11.609375 -0.046875 C 11.179688 -0.078125 10.753906 -0.09375 10.328125 -0.09375 C 9.796875 -0.09375 9.257812 -0.078125 8.71875 -0.046875 C 8.1875 -0.0234375 7.796875 -0.0078125 7.546875 0 L 7.546875 -0.453125 C 7.828125 -0.453125 8.019531 -0.519531 8.125 -0.65625 C 8.226562 -0.789062 8.210938 -0.96875 8.078125 -1.1875 L 5.953125 -5.046875 C 5.773438 -5.316406 5.601562 -5.488281 5.4375 -5.5625 C 5.269531 -5.644531 5.050781 -5.691406 4.78125 -5.703125 L 4.78125 -6.125 C 5.082031 -6.144531 5.34375 -6.191406 5.5625 -6.265625 C 5.789062 -6.335938 6 -6.472656 6.1875 -6.671875 L 7.828125 -8.28125 C 8.304688 -8.738281 8.546875 -9.144531 8.546875 -9.5 C 8.546875 -9.863281 8.390625 -10.148438 8.078125 -10.359375 C 7.773438 -10.578125 7.375 -10.691406 6.875 -10.703125 L 6.875 -11.140625 C 7.28125 -11.128906 7.71875 -11.113281 8.1875 -11.09375 C 8.664062 -11.082031 9.066406 -11.078125 9.390625 -11.078125 C 9.679688 -11.078125 9.988281 -11.078125 10.3125 -11.078125 C 10.632812 -11.085938 10.9375 -11.097656 11.21875 -11.109375 C 11.507812 -11.117188 11.742188 -11.128906 11.921875 -11.140625 Z M 11.921875 -11.140625 "/></g></g></g></svg>